<svg class="folder-icon" xmlns="http://www.w3.org/2000/svg" viewBox="0 0 52.800414 39.392592">
  <path fill="#33AEFF" d="M4.74155 5.11767c.11781-.14927 1.0624-1.23256 2.09908-2.40733L9.05362.24629l6.526.32612 6.85412-.002 2.07894 2.35232 2.07895 2.35233H15.97841c-5.83726 0-11.53609.43185-11.76649.46335l.31543-.34915.2142-.27142z"/>
  <path fill="#33AEFF" d="M.08677 24.58928c.00065-8.93764.0509-14.84478.1325-15.5646.0801-.70728.24325-1.38613.41787-1.73919.34829-.7042 1.15862-1.33935 1.98925-1.5592.78436-.20761 43.65412-.32888 46.1397-.13052 1.69695.13542 2.28214.33748 2.89693 1.00024.50836.54806.74094 1.09322.88169 2.06678.0772.53425.12788 6.63806.12943 15.60425l.002 14.72677H.08514l.001-14.40453z"/>
  <path fill="none" stroke="#000" stroke-width=".85500002" d="M4.52844 5.5784L9.09029.42769 22.08144.4275l4.49897 5.07937"/>
  <path fill="none" stroke="#000" stroke-width=".84165007" d="M52.37469 11.8539c0-3.38828-.28602-4.66511-1.58788-5.53128-.87882-.76407-2.306-.73335-5.38271-.78924l-38.00673.002c-3.08265.0586-4.50982.028-5.38864.79202-1.30187.86616-1.5879 2.14299-1.5879 5.53127v27.11308l51.95869-.002z"/>
</svg>
