<?xml version="1.0" encoding="UTF-8" standalone="no"?>
<!-- Created with Inkscape (http://www.inkscape.org/) -->

<svg
   xmlns:dc="http://purl.org/dc/elements/1.1/"
   xmlns:cc="http://creativecommons.org/ns#"
   xmlns:rdf="http://www.w3.org/1999/02/22-rdf-syntax-ns#"
   xmlns:svg="http://www.w3.org/2000/svg"
   xmlns="http://www.w3.org/2000/svg"
   xmlns:sodipodi="http://sodipodi.sourceforge.net/DTD/sodipodi-0.dtd"
   xmlns:inkscape="http://www.inkscape.org/namespaces/inkscape"
   width="14.90145mm"
   height="11.117465mm"
   viewBox="0 0 52.800414 39.392592"
   id="svg2"
   version="1.1"
   inkscape:version="0.91 r13725"
   sodipodi:docname="folder.svg">
  <defs
     id="defs4" />
  <sodipodi:namedview
     id="base"
     pagecolor="#ffffff"
     bordercolor="#666666"
     borderopacity="1.0"
     inkscape:pageopacity="0.0"
     inkscape:pageshadow="2"
     inkscape:zoom="16"
     inkscape:cx="32.859774"
     inkscape:cy="27.106221"
     inkscape:document-units="px"
     inkscape:current-layer="layer1"
     showgrid="false"
     fit-margin-top="0"
     fit-margin-left="0"
     fit-margin-right="0"
     fit-margin-bottom="0"
     inkscape:window-width="1920"
     inkscape:window-height="1057"
     inkscape:window-x="-8"
     inkscape:window-y="-8"
     inkscape:window-maximized="1" />
  <metadata
     id="metadata7">
    <rdf:RDF>
      <cc:Work
         rdf:about="">
        <dc:format>image/svg+xml</dc:format>
        <dc:type
           rdf:resource="http://purl.org/dc/dcmitype/StillImage" />
        <dc:title></dc:title>
      </cc:Work>
    </rdf:RDF>
  </metadata>
  <g
     inkscape:label="Layer 1"
     inkscape:groupmode="layer"
     id="layer1"
     transform="translate(-228.80462,-238.62431)">
    <path
       style="fill:#0000ff;fill-opacity:1;stroke:none;stroke-opacity:1"
       d="m 233.54617,243.74198 c 0.11781,-0.14927 1.0624,-1.23256 2.09908,-2.40733 l 2.21299,-2.46405 6.526,0.32612 6.85412,-0.002 2.07894,2.35232 2.07895,2.35233 -10.61322,0 c -5.83726,0 -11.53609,0.43185 -11.76649,0.46335 l 0.31543,-0.34915 0.2142,-0.27142 z"
       id="path4794"
       inkscape:connector-curvature="0"
       sodipodi:nodetypes="cscccccscccc" />
    <path
       style="fill:#0000ff;fill-opacity:1;stroke:none;stroke-opacity:1"
       d="m 228.89139,263.21359 c 6.5e-4,-8.93764 0.0509,-14.84478 0.1325,-15.5646 0.0801,-0.70728 0.24325,-1.38613 0.41787,-1.73919 0.34829,-0.7042 1.15862,-1.33935 1.98925,-1.5592 0.78436,-0.20761 43.65412,-0.32888 46.1397,-0.13052 1.69695,0.13542 2.28214,0.33748 2.89693,1.00024 0.50836,0.54806 0.74094,1.09322 0.88169,2.06678 0.0772,0.53425 0.12788,6.63806 0.12943,15.60425 l 0.002,14.72677 -26.2955,0 -26.2955,0 0.001,-14.40453 z"
       id="path4212"
       inkscape:connector-curvature="0" />
    <path
       style="fill:none;fill-rule:evenodd;stroke:#000000;stroke-width:0.85500002;stroke-linecap:butt;stroke-linejoin:miter;stroke-miterlimit:4;stroke-dasharray:none;stroke-opacity:1"
       d="m 233.33306,244.20271 4.56185,-5.15071 0,0 12.99115,-1.9e-4 4.49897,5.07937"
       id="path4138"
       inkscape:connector-curvature="0"
       sodipodi:nodetypes="ccccc" />
    <path
       style="fill:none;fill-rule:evenodd;stroke:#000000;stroke-width:0.84165007px;stroke-linecap:butt;stroke-linejoin:miter;stroke-opacity:1"
       d="m 281.17931,250.47821 c 0,-3.38828 -0.28602,-4.66511 -1.58788,-5.53128 -0.87882,-0.76407 -2.306,-0.73335 -5.38271,-0.78924 l -38.00673,0.002 c -3.08265,0.0586 -4.50982,0.028 -5.38864,0.79202 -1.30187,0.86616 -1.5879,2.14299 -1.5879,5.53127 l 0,27.11308 51.95869,-0.002 z"
       id="path4136-0"
       inkscape:connector-curvature="0"
       sodipodi:nodetypes="ccccccccc" />
  </g>
</svg>
